<svg t="1749708535903" class="icon" viewBox="0 0 2053 1024" version="1.1" xmlns="http://www.w3.org/2000/svg" p-id="4196" width="200" height="200"><path d="M2051.443814 316.036813c0-17.396224-15.350272-32.745779-32.747213-32.745779-1.023386 0-232.300237 0-232.300237 0l0-52.188616-112.568406 0 0 52.188616-255.837287 0 0 109.493763 102.334915 0 0-56.281841 410.363009 0c0 0 7.163494 0 10.233446 4.093235 4.09344 4.093235 5.116723 9.209754 5.116723 9.209754l0 40.932248 105.404962 0 0-73.678046L2051.443727 316.036863 2051.443814 316.036813zM1780.256358 620.982067l207.739877 0 0-52.188616-207.739877 0 0-93.120864 225.136813 0 0-53.211922-548.515144 0 0 53.211922 223.090115 0 0 93.120864-206.716528 0 0 52.188616 206.716528 0 0 113.586988-266.070779 0c0 0-3.070054 23.536026-10.233446 35.815731-8.186778 12.279706-19.44361 20.466074-19.44361 20.466074l29.677125 0 633.453124 0 0-56.281841-267.094128 0L1780.256428 620.98211zM1833.470464 683.403776c0 26.605978 28.653773 49.11872 63.447654 49.11872 35.817267 0 62.424269-22.512742 62.424269-49.11872 0-27.629261-26.607104-50.142003-62.424269-50.142003C1862.124237 633.261773 1833.470464 655.774515 1833.470464 683.403776L1833.470464 683.403776zM633.081958 231.102464l-603.775998 0 0 50.142004 603.775998 0L633.081958 231.102449zM244.209254 348.782694l0-46.048779-98.241518 0c-12.280218 0-23.53705 9.209754-23.53705 21.489459 0 13.302989 11.256832 24.559309 23.53705 24.559309L244.209249 348.782683zM422.272 302.733926l0 46.048779 100.288217 0c12.280218 0 23.53705-11.25632 23.53705-24.559309 0-12.279706-11.256832-21.489459-23.53705-21.489459L422.272002 302.733937zM105.033728 411.204301l435.946738 0c0 0 7.163494 3.069952 10.233446 6.139802s4.09344 7.163187 4.09344 7.163187l0 26.605961 90.054725 0c0-62.421709 0-62.421709 0-62.421709 0-12.279706-11.256832-22.512742-21.490381-22.512742l-4.093397 0-237.417003 0 0-63.444984-96.19482 0 0 63.444984-181.1328 0-2.046698 0-84.937979 0 0 84.934414 86.984678 0L105.033678 411.204339zM812.167987 353.899213c44.004045 0 77.774541-26.605978 77.774541-61.398323 0-33.769062-33.770496-61.398323-77.774541-61.398323-41.957274 0-76.751155 27.629261-76.751155 61.398323C735.416832 327.293235 770.210714 353.899213 812.167987 353.899213L812.167987 353.899213zM795.794432 523.768013c-2.046669 82.887782-98.241536 223.080755-98.241536 223.080755s32.747213 10.233037 65.494323 12.279706c38.887219 6.139802 72.657818 3.069952 72.657818 3.069952s50.144154-186.241741 36.84055-258.896486c-13.303501-73.678029-165.782528-137.123021-165.782528-137.123021l-25.583718 51.165286C681.179341 417.344205 797.841101 470.556058 795.794432 523.768013L795.794432 523.768013zM1313.609114 285.337702l-251.743891 0c17.396941-30.699213 17.396941-54.235238 17.396941-54.235238l-84.937979 0c0 0-1.023386 24.559309-31.723827 71.631462-26.607104 36.839014-64.47104 57.30519-64.47104 57.30519l0 41.955554c0 0 34.793882-1.023283 76.751155-27.629261l-25.583718 74.701312 69.587742 0 11.256841 0 6.140095 0 0 33.769105-130.988691 0 0 49.118698 130.988691 0 0 32.745798c-38.887219-8.18647-92.101427-12.279706-112.568422 23.536026-48.097382 89.027686 79.82121 174.985318 79.82121 174.985318l59.354214-22.512742c0 0-105.404928-73.678029-79.82121-113.586995 27.630387-42.978816 100.288205 12.279706 100.288205 12.279706s74.704486-55.258522 101.31159-12.279706c28.653773 48.095437-80.844595 113.586995-80.844595 113.586995s-80.844595 56.281805-276.304282 61.398323c-241.5104 2.046566-333.611827-140.192973-333.611827-141.216256 78.797926-58.328474 93.124813-102.330573 93.124813-102.330573l-142.245532 0-7.163444 0-204.66983 0c10.233446-12.279706 18.420326-24.559309 24.560333-35.815731l405.246263 0 0-52.188616-376.592487 0c11.256832-27.629261 17.396941-44.002202 17.396941-44.002202l-97.218169 0c0 0-6.140109 18.419507-16.373555 44.002202l-189.319593 0 0 52.188616 161.689166 0c-8.186778 13.302989-18.420326 29.67593-28.653773 44.002202-55.260877 68.56151-132.012032 114.610278-132.012032 114.610278l28.653773 39.908966c0 0 92.101427-40.93225 157.59575-108.470477l230.253559 0c-13.303501 15.349555-35.817267 34.792448-69.587763 56.281805-105.404928 64.468275-251.743846 76.747981-251.743846 76.747981l0 65.491597c0 0 179.086131-28.652544 291.654554-85.957734 2.046669-1.023283 6.140109-4.093235 10.233446-5.116518 34.793882 33.769062 145.315533 134.053069 432.876646 134.053069 214.903296 0 332.588442-91.074253 332.588442-91.074253s127.918694-85.957734 79.82121-174.985318c-20.466995-36.839014-76.751155-31.722496-117.685146-21.489459l0-34.792411 130.988691 0 0-49.118698-130.988691 0 0-33.769105 110.521708 0 0-48.095391-194.436338 0 10.233446-32.745779-65.494346 0c11.256832-10.233037 23.53705-19.44279 35.817267-31.722496l1.023349 0 233.323606 0c0 0 9.210163 3.069952 15.350272 7.163187 5.116723 5.116518 7.163494 14.326272 7.163494 14.326272l0 376.576681 0 72.65474c0 0 36.84055 2.046566 65.494323-17.396224 26.607104-18.419507 29.677158-55.258522 29.677158-55.258522l0-382.716518C1371.940045 317.060198 1346.356326 289.430938 1313.609114 285.337702z" p-id="4197" fill="#d81e06"></path></svg>